<?xml version="1.0" encoding="utf-8"?>
<!-- Generator: Adobe Illustrator 16.0.0, SVG Export Plug-In . SVG Version: 6.00 Build 0)  -->
<!DOCTYPE svg PUBLIC "-//W3C//DTD SVG 1.1//EN" "http://www.w3.org/Graphics/SVG/1.1/DTD/svg11.dtd">
<svg version="1.1" id="Layer_1" xmlns="http://www.w3.org/2000/svg" xmlns:xlink="http://www.w3.org/1999/xlink" x="0px" y="0px"
	 width="779.377px" height="141.242px" viewBox="0 0 779.377 141.242" enable-background="new 0 0 779.377 141.242"
	 xml:space="preserve">
<g>
	<path fill="#2044DB" d="M194.112,104.996c1.354-1.692,2.875-1.858,4.567-0.511c0.17,0.09,0.761,0.682,1.86,1.695
		c1.098,1.101,1.861,1.776,2.367,2.197c0.848,0.682,4.399,3.635,5.923,4.398c1.691,1.014,5.073,2.961,7.612,3.721
		c2.537,0.764,6.174,1.438,9.557,1.438c6.852,0,12.265-1.604,16.323-4.734c4.061-3.129,6.09-7.104,6.09-12.096
		c0-3.635-1.268-6.765-3.721-9.471c-2.453-2.707-4.821-4.566-7.021-5.669c-2.284-1.018-5.834-2.366-10.826-4.144
		c-0.93-0.256-1.521-0.512-1.943-0.68c-12.012-4.479-20.894-9.388-26.562-14.549c-5.75-5.158-8.625-12.095-8.625-20.722
		c0-8.372,3.128-15.817,9.473-22.16c6.343-6.342,15.308-9.558,26.896-9.558c5.583,0,10.995,1.016,16.238,2.962
		c5.244,1.941,9.051,3.807,11.504,5.582c2.368,1.773,4.481,3.551,6.343,5.414c1.86,1.436,2.114,2.96,0.847,4.565l-5.582,7.359
		c-1.607,1.773-3.216,2.027-4.822,0.844l-2.368-2.027c-1.607-1.27-2.707-2.199-3.299-2.621c-0.591-0.426-1.776-1.188-3.467-2.285
		c-1.776-1.1-3.299-1.861-4.569-2.368c-2.704-0.931-6.851-2.031-10.825-2.031c-5.751,0-10.489,1.524-14.211,4.655
		c-3.721,3.129-5.582,7.02-5.582,11.669c0,4.651,1.778,8.205,5.244,10.827c3.468,2.624,8.881,5.414,16.325,8.288
		c6.089,2.366,10.995,4.396,14.632,6.177c3.637,1.771,7.443,4.146,11.334,6.938c7.696,5.748,11.164,13.19,11.164,23.004
		c0,8.797-3.723,16.408-11.164,22.752c-7.443,6.43-16.748,9.646-27.997,9.646c-14.126,0-26.559-5.672-37.47-17.004
		c-1.607-1.438-1.946-2.875-0.846-4.146L194.112,104.996z"/>
	<path fill="#2044DB" d="M288.33,122.927c-7.273-7.188-10.912-16.068-10.912-26.727c0-10.572,3.639-19.369,10.912-26.561
		c7.189-7.188,16.07-10.74,26.556-10.74c10.573,0,19.456,3.552,26.729,10.74c7.191,7.19,10.827,15.987,10.827,26.561
		c0,10.656-3.636,19.539-10.827,26.727c-7.272,7.189-16.155,10.743-26.729,10.743C304.4,133.67,295.52,130.116,288.33,122.927z
		 M330.79,112.692c4.142-4.397,6.255-9.896,6.255-16.492c0-6.344-2.113-11.758-6.255-16.241c-4.23-4.397-9.559-6.596-15.903-6.596
		c-6.259,0-11.502,2.198-15.646,6.596c-4.229,4.483-6.343,9.897-6.343,16.241c0,6.516,2.114,12.012,6.343,16.411
		c4.145,4.481,9.388,6.68,15.646,6.68C321.231,119.291,326.56,117.093,330.79,112.692z"/>
	<path fill="#2044DB" d="M408.85,43.138c-3.465-3.384-3.465-9.052,0-12.521c3.385-3.38,9.051-3.38,12.516,0
		c3.385,3.469,3.385,9.137,0,12.521C417.899,46.604,412.233,46.604,408.85,43.138z M411.979,132.483
		c-3.469,0-5.582-2.367-5.582-5.834V62.202c0-1.609,0.762-2.371,2.367-2.371H420.1c1.604,0,2.365,0.762,2.281,2.371v67.743
		c0,1.692-0.763,2.538-2.197,2.538H411.979z"/>
	<path fill="#2044DB" d="M369.767,126.774c0,3.47,2.117,5.834,5.584,5.834h8.206c1.437,0,2.192-0.842,2.192-2.533l0.012-109.156
		c0-3.469-2.118-5.835-5.581-5.835h-8.206c-1.439,0-2.197,0.842-2.197,2.537"/>
	<path fill="#2044DB" d="M615.981,99.753c0,9.393-3.471,17.256-10.486,23.426c-7.024,6.18-15.229,9.308-24.612,9.308h-46.521
		c-1.697,0-2.541-0.847-2.541-2.539V17.372c0-1.608,0.76-2.37,2.369-2.285h42.883c9.053,0,16.744,3.214,23.088,9.644
		c6.351,6.513,9.479,13.616,9.479,21.313c0,10.488-4.48,18.439-13.535,23.939C608.366,75.646,615.981,86.642,615.981,99.753z
		 M573.856,65.075c13.785-0.086,19.959-11.168,18.105-20.641c-1.359-6.934-7.367-13.36-17.849-13.36h-25.714v34.001H573.856z
		 M577.071,116.499c7.781,0,14.375-2.959,17.674-7.188c3.304-4.229,4.992-9.478,3.556-14.549
		c-1.777-7.443-8.97-14.211-21.398-14.127h-28.334v35.861L577.071,116.499L577.071,116.499z"/>
	<path fill="#2044DB" d="M636.104,43.138c-3.463-3.384-3.463-9.052,0-12.521c3.385-3.38,9.053-3.38,12.522,0
		c3.382,3.469,3.382,9.137,0,12.521C645.155,46.604,639.487,46.604,636.104,43.138z M639.233,132.483
		c-3.469,0-5.582-2.367-5.582-5.834V62.202c0-1.609,0.76-2.371,2.367-2.371h11.338c1.605,0,2.365,0.762,2.279,2.371v67.743
		c0,1.692-0.758,2.538-2.199,2.538H639.233z"/>
	<path fill="#2044DB" d="M727.78,114.302c0.938-1.438,2.119-1.861,3.385-1.183c6.771,3.635,13.193,5.409,19.289,5.409
		c7.527,0,11.332-2.366,11.246-7.021c0-2.279-1.096-3.978-3.299-5.156c-2.285-1.186-6.344-2.623-12.348-4.229
		c-13.615-3.724-22.158-11.164-22.158-21.737c0-6.008,2.365-11.08,7.018-15.224c4.654-4.147,10.996-6.261,19.201-6.261
		c7.949,0,15.814,2.371,23.682,7.104c1.943,1.186,2.453,2.453,1.435,3.809l-5.238,7.608c-0.932,1.271-2.119,1.61-3.387,1.019
		c-6.258-3.045-11.754-4.566-16.49-4.566c-7.021,0-9.809,3.301-9.809,6.768c0,2.369,1.012,3.977,4.055,5.412
		c1.523,0.764,2.793,1.271,3.807,1.607c1.017,0.337,2.707,0.843,5.162,1.521c7.867,2.112,14.125,4.987,18.945,8.541
		c4.734,3.641,7.104,8.375,7.104,14.379c0,6.174-2.709,11.246-8.031,15.312c-5.418,4.062-12.355,6.092-20.894,6.092
		c-5.33,0-10.489-0.933-15.479-2.963c-4.99-1.942-8.715-3.892-11.254-5.838c-1.269-0.673-1.521-1.604-0.754-2.788L727.78,114.302z"
		/>
	<g>
		<path fill="#2044DB" d="M505.085,15.523h-8.204c-1.438,0-2.199,0.846-2.199,2.541v46.696c-6.068-3.934-12.967-5.861-20.621-5.861
			c-9.049,0-16.916,3.469-23.766,10.32c-6.855,6.846-10.32,15.562-10.32,26.133c0,10.91,3.215,19.961,9.643,27.235
			c6.345,7.272,14.631,10.913,24.867,10.913c7.41,0,14.168-2.148,20.191-6.414v0.131c0,3.473,2.112,5.838,5.584,5.838h8.2
			c1.439,0,2.197-0.847,2.197-2.539l0.008-109.153C510.665,17.893,508.551,15.523,505.085,15.523z M477.192,118.698
			c-6.178,0-11.338-2.114-15.398-6.344c-4.061-4.145-6.09-9.812-6.09-17.002c0-6.938,2.199-12.263,6.517-15.987
			c4.313-3.72,9.051-5.576,14.377-5.576c6.141,0,12.104,2.008,18.084,5.938l-0.006,33.873
			C488.956,117.021,483.153,118.698,477.192,118.698z"/>
	</g>
	<path fill="#2044DB" d="M756.829,83.435"/>
	<path fill="#256EFF" d="M748.143,117.634"/>
	<path fill="#2044DB" d="M793.113,140.233"/>
	<path fill="#2044DB" d="M713.069,127.748c0.254,0.933-0.17,1.774-1.438,2.707c-2.787,1.863-7.275,2.79-13.363,2.79
		c-7.695,0-13.197-2.113-16.494-6.343c-3.299-4.229-4.988-11.163-4.988-20.722V75.226h-8.627c-1.608,0-2.367-0.765-2.367-2.371
		v-2.451c0-1.268,0.421-2.281,1.183-2.961c4.906-3.805,8.967-7.864,12.18-12.094c3.133-4.146,6.002-9.811,8.543-16.834
		c0.511-1.095,1.021-1.604,1.607-1.604h2.026c1.104,0,1.607,0.676,1.607,1.945v20.976h15.396c1.352,0,2.534,1.097,2.534,2.45v10.572
		c0,1.354-1.1,2.371-2.534,2.371H692.77v29.52c0,9.386,1.609,13.363,8.293,13.363c2.281,0,4.563-0.342,6.85-0.935
		c1.861-0.507,2.959,0.171,3.214,1.946L713.069,127.748z"/>
	<g>
		<path fill="#2044DB" d="M37.908,50.366c-3.465-3.383-3.465-9.053,0-12.521c3.385-3.38,9.052-3.38,12.517,0
			c3.386,3.469,3.386,9.137,0,12.521C46.96,53.832,41.293,53.832,37.908,50.366z"/>
		<path fill="#2044DB" d="M71.435,51.919c-2.2,0-4.672,1.67-5.494,3.71c0,0-0.228,0.563-1.544,2.492
			c-0.806,1.181-1.729,2.299-2.77,3.34c-9.638,9.642-25.399,9.642-34.814,0c-9.637-9.412-9.637-25.178,0-34.824
			c9.415-9.402,25.177-9.402,34.814,0c1.074,1.102,2.022,2.283,2.848,3.527c1.288,1.938,1.499,2.474,1.499,2.474
			c0.81,2.047,3.271,3.721,5.472,3.721h65.797c2.2,0,4-1.801,4-4V4c0-2.199-1.8-4-4-4H4.001c-2.2,0-4,1.801-4,4v81.324
			c0,2.2,1.8,4,4,4h65.877c2.2,0,4.688-1.664,5.525-3.698c0,0,0.229-0.559,1.565-2.496c0.819-1.188,1.755-2.316,2.81-3.371
			c9.415-9.402,25.178-9.402,34.814,0c9.415,9.646,9.415,25.413,0,34.824c-9.638,9.641-25.399,9.641-34.814,0
			c-1.125-1.098-2.114-2.283-2.97-3.535c-1.317-1.92-1.532-2.453-1.532-2.453c-0.823-2.039-3.296-3.709-5.496-3.709H4
			c-2.2,0-4,1.801-4,4v28.356c0,2.2,1.8,4,4,4h133.242c2.2,0,4-1.8,4-4V55.919c0-2.199-1.8-4-4-4H71.435z"/>
		<path fill="#2044DB" d="M90.875,103.333c-3.465-3.383-3.465-9.052,0-12.521c3.385-3.379,9.052-3.379,12.518,0
			c3.386,3.47,3.386,9.139,0,12.521C99.927,106.8,94.26,106.8,90.875,103.333z"/>
	</g>
</g>
</svg>
