<?xml version="1.0" encoding="utf-8"?>
<!-- Generator: Adobe Illustrator 16.0.0, SVG Export Plug-In . SVG Version: 6.00 Build 0)  -->
<!DOCTYPE svg PUBLIC "-//W3C//DTD SVG 1.1//EN" "http://www.w3.org/Graphics/SVG/1.1/DTD/svg11.dtd">
<svg version="1.1" id="Layer_1" xmlns="http://www.w3.org/2000/svg" xmlns:xlink="http://www.w3.org/1999/xlink" x="0px" y="0px"
	 width="779.377px" height="141.242px" viewBox="0 0 779.377 141.242" enable-background="new 0 0 779.377 141.242"
	 xml:space="preserve">
<g>
	<path fill="#2044DB" d="M194.111,104.996c1.354-1.693,2.875-1.859,4.567-0.512c0.17,0.091,0.761,0.683,1.861,1.695
		c1.097,1.102,1.861,1.778,2.367,2.199c0.848,0.68,4.399,3.635,5.923,4.398c1.691,1.014,5.073,2.961,7.612,3.721
		c2.537,0.762,6.174,1.438,9.557,1.438c6.851,0,12.264-1.604,16.323-4.735c4.061-3.13,6.09-7.103,6.09-12.095
		c0-3.637-1.268-6.765-3.721-9.472s-4.821-4.565-7.021-5.668c-2.284-1.018-5.834-2.366-10.826-4.144
		c-0.93-0.254-1.522-0.512-1.944-0.678c-12.012-4.48-20.893-9.389-26.561-14.551c-5.75-5.158-8.625-12.095-8.625-20.722
		c0-8.372,3.128-15.817,9.472-22.16c6.343-6.342,15.308-9.558,26.897-9.558c5.583,0,10.995,1.016,16.238,2.962
		c5.244,1.942,9.051,3.807,11.504,5.582c2.368,1.774,4.481,3.551,6.343,5.414c1.86,1.436,2.114,2.96,0.846,4.565l-5.582,7.36
		c-1.607,1.774-3.215,2.028-4.822,0.844l-2.368-2.027c-1.607-1.27-2.707-2.2-3.299-2.622c-0.591-0.426-1.776-1.188-3.467-2.285
		c-1.776-1.099-3.298-1.861-4.569-2.368c-2.704-0.931-6.851-2.031-10.825-2.031c-5.751,0-10.489,1.524-14.211,4.655
		c-3.721,3.129-5.582,7.019-5.582,11.669c0,4.652,1.778,8.205,5.244,10.827c3.468,2.624,8.881,5.414,16.325,8.288
		c6.089,2.366,10.995,4.396,14.632,6.177c3.637,1.773,7.443,4.145,11.334,6.936c7.696,5.75,11.164,13.192,11.164,23.004
		c0,8.797-3.723,16.41-11.164,22.752c-7.443,6.431-16.748,9.646-27.997,9.646c-14.126,0-26.559-5.672-37.47-17.004
		c-1.607-1.438-1.946-2.875-0.845-4.145L194.111,104.996z"/>
	<path fill="#2044DB" d="M288.329,122.925c-7.274-7.187-10.912-16.067-10.912-26.726c0-10.572,3.638-19.369,10.912-26.56
		c7.189-7.189,16.07-10.741,26.556-10.741c10.573,0,19.456,3.552,26.728,10.741c7.191,7.19,10.827,15.987,10.827,26.56
		c0,10.656-3.636,19.539-10.827,26.726c-7.272,7.19-16.155,10.744-26.728,10.744C304.399,133.669,295.518,130.116,288.329,122.925z
		 M330.789,112.693c4.141-4.398,6.255-9.896,6.255-16.493c0-6.345-2.114-11.759-6.255-16.241c-4.231-4.396-9.559-6.596-15.904-6.596
		c-6.258,0-11.501,2.197-15.646,6.596c-4.229,4.482-6.343,9.896-6.343,16.241c0,6.516,2.114,12.012,6.343,16.411
		c4.145,4.48,9.388,6.68,15.646,6.68C321.23,119.291,326.558,117.092,330.789,112.693z"/>
	<path fill="#2044DB" d="M408.847,43.137c-3.465-3.384-3.465-9.052,0-12.521c3.385-3.38,9.053-3.38,12.518,0
		c3.384,3.469,3.384,9.137,0,12.521C417.899,46.604,412.231,46.604,408.847,43.137z M411.976,132.484
		c-3.469,0-5.58-2.368-5.58-5.836V62.202c0-1.61,0.762-2.371,2.367-2.371h11.336c1.604,0,2.364,0.761,2.28,2.371v67.743
		c0,1.693-0.761,2.539-2.196,2.539H411.976z"/>
	<path fill="#2044DB" d="M369.765,126.773c0,3.471,2.118,5.836,5.584,5.836h8.206c1.436,0,2.193-0.844,2.193-2.534l0.011-109.156
		c0-3.469-2.118-5.835-5.581-5.835h-8.206c-1.439,0-2.197,0.841-2.197,2.537"/>
	<path fill="#2044DB" d="M615.979,99.752c0,9.393-3.471,17.255-10.485,23.425c-7.027,6.181-15.23,9.308-24.615,9.308h-46.52
		c-1.697,0-2.541-0.846-2.541-2.539V17.372c0-1.608,0.76-2.37,2.368-2.285h42.884c9.051,0,16.743,3.214,23.088,9.643
		c6.348,6.513,9.477,13.617,9.477,21.314c0,10.488-4.479,18.439-13.533,23.939C608.365,75.646,615.979,86.641,615.979,99.752z
		 M573.854,65.075c13.785-0.086,19.959-11.168,18.105-20.641c-1.359-6.933-7.367-13.36-17.846-13.36H548.4v34.001H573.854z
		 M577.07,116.499c7.78,0,14.375-2.959,17.674-7.187c3.301-4.229,4.992-9.478,3.553-14.551c-1.776-7.443-8.967-14.21-21.396-14.126
		h-28.336v35.862L577.07,116.499L577.07,116.499z"/>
	<path fill="#2044DB" d="M636.102,43.137c-3.463-3.384-3.463-9.052,0-12.521c3.386-3.38,9.054-3.38,12.523,0
		c3.381,3.469,3.381,9.137,0,12.521C645.154,46.604,639.486,46.604,636.102,43.137z M639.232,132.484
		c-3.47,0-5.582-2.368-5.582-5.836V62.202c0-1.61,0.76-2.371,2.366-2.371h11.339c1.604,0,2.364,0.761,2.278,2.371v67.743
		c0,1.693-0.758,2.539-2.199,2.539H639.232z"/>
	<path fill="#2044DB" d="M727.779,114.3c0.936-1.438,2.119-1.86,3.385-1.182c6.768,3.635,13.193,5.409,19.289,5.409
		c7.526,0,11.332-2.366,11.246-7.021c0-2.28-1.097-3.978-3.299-5.157c-2.285-1.185-6.345-2.623-12.349-4.229
		c-13.615-3.724-22.158-11.164-22.158-21.737c0-6.008,2.365-11.08,7.019-15.224c4.653-4.148,10.996-6.261,19.201-6.261
		c7.948,0,15.813,2.372,23.68,7.104c1.945,1.186,2.455,2.453,1.436,3.808l-5.239,7.609c-0.931,1.271-2.119,1.61-3.386,1.019
		c-6.258-3.045-11.756-4.567-16.489-4.567c-7.023,0-9.812,3.301-9.812,6.766c0,2.37,1.015,3.978,4.056,5.413
		c1.522,0.764,2.795,1.27,3.809,1.608c1.014,0.337,2.707,0.843,5.16,1.522c7.867,2.112,14.127,4.987,18.944,8.541
		c4.734,3.639,7.105,8.375,7.105,14.379c0,6.174-2.709,11.246-8.033,15.311c-5.416,4.061-12.354,6.092-20.891,6.092
		c-5.33,0-10.492-0.934-15.479-2.963c-4.99-1.943-8.715-3.891-11.254-5.838c-1.268-0.674-1.521-1.605-0.754-2.788L727.779,114.3z"/>
	<g>
		<path fill="#2044DB" d="M505.082,15.524h-8.203c-1.438,0-2.201,0.845-2.201,2.54V64.76c-6.065-3.933-12.967-5.861-20.619-5.861
			c-9.051,0-16.916,3.469-23.768,10.32c-6.854,6.848-10.32,15.563-10.32,26.133c0,10.912,3.215,19.963,9.644,27.237
			c6.344,7.272,14.631,10.913,24.869,10.913c7.409,0,14.168-2.148,20.19-6.414v0.13c0,3.474,2.113,5.837,5.584,5.837h8.201
			c1.439,0,2.197-0.845,2.197-2.537l0.008-109.155C510.664,17.893,508.549,15.524,505.082,15.524z M477.191,118.698
			c-6.179,0-11.339-2.114-15.4-6.345c-4.059-4.143-6.088-9.81-6.088-17.002c0-6.937,2.199-12.261,6.514-15.986
			c4.313-3.719,9.054-5.576,14.379-5.576c6.142,0,12.105,2.008,18.082,5.938l-0.004,33.875
			C488.955,117.021,483.152,118.698,477.191,118.698z"/>
	</g>
	<path fill="#2044DB" d="M756.828,83.436"/>
	<path fill="#256EFF" d="M748.141,117.632"/>
	<path fill="#2044DB" d="M761.299,97.693"/>
	<path fill="#2044DB" d="M713.068,127.748c0.254,0.934-0.17,1.773-1.439,2.707c-2.787,1.863-7.275,2.79-13.361,2.79
		c-7.696,0-13.196-2.113-16.493-6.343c-3.3-4.229-4.988-11.164-4.988-20.723V75.225h-8.629c-1.609,0-2.367-0.763-2.367-2.371v-2.451
		c0-1.268,0.42-2.281,1.182-2.961c4.906-3.805,8.967-7.864,12.181-12.094c3.133-4.145,6.002-9.81,8.543-16.833
		c0.51-1.095,1.018-1.604,1.606-1.604h2.027c1.104,0,1.606,0.676,1.606,1.945v20.976h15.398c1.35,0,2.535,1.096,2.535,2.45v10.571
		c0,1.356-1.101,2.371-2.535,2.371h-15.566v29.521c0,9.386,1.609,13.362,8.291,13.362c2.283,0,4.563-0.34,6.853-0.933
		c1.858-0.507,2.959,0.171,3.213,1.946L713.068,127.748z"/>
	<g>
		<path fill="#2044DB" d="M37.907,50.365c-3.465-3.383-3.465-9.052,0-12.521c3.385-3.38,9.052-3.38,12.517,0
			c3.385,3.469,3.385,9.137,0,12.521C46.959,53.832,41.292,53.832,37.907,50.365z"/>
		<path fill="#2044DB" d="M71.433,51.918c-2.2,0-4.672,1.67-5.494,3.71c0,0-0.227,0.563-1.544,2.492
			c-0.805,1.18-1.728,2.299-2.769,3.34c-9.638,9.641-25.4,9.641-34.815,0c-9.636-9.412-9.636-25.178,0-34.824
			c9.415-9.403,25.177-9.403,34.815,0c1.074,1.101,2.022,2.283,2.847,3.527c1.288,1.939,1.499,2.474,1.499,2.474
			c0.81,2.046,3.271,3.72,5.472,3.72h65.797c2.2,0,4-1.8,4-4V4c0-2.2-1.8-4-4-4H4C1.8,0,0,1.8,0,4v81.324c0,2.199,1.8,4,4,4h65.877
			c2.2,0,4.687-1.664,5.525-3.698c0,0,0.23-0.56,1.566-2.496c0.819-1.187,1.754-2.315,2.809-3.371
			c9.415-9.402,25.178-9.402,34.815,0c9.415,9.646,9.415,25.413,0,34.824c-9.638,9.642-25.4,9.642-34.815,0
			c-1.125-1.099-2.114-2.283-2.97-3.535c-1.317-1.92-1.532-2.453-1.532-2.453c-0.823-2.04-3.296-3.709-5.496-3.709H4
			c-2.2,0-4,1.8-4,4v28.356c0,2.199,1.8,4,4,4h133.242c2.2,0,4-1.801,4-4V55.918c0-2.2-1.8-4-4-4H71.433z"/>
		<path fill="#2044DB" d="M90.874,103.333c-3.465-3.383-3.465-9.052,0-12.521c3.385-3.381,9.052-3.381,12.517,0
			c3.386,3.467,3.386,9.137,0,12.521C99.926,106.799,94.259,106.799,90.874,103.333z"/>
	</g>
</g>
</svg>
