<?xml version="1.0" encoding="utf-8"?>
<!-- Generator: Adobe Illustrator 16.0.0, SVG Export Plug-In . SVG Version: 6.00 Build 0)  -->
<!DOCTYPE svg PUBLIC "-//W3C//DTD SVG 1.1//EN" "http://www.w3.org/Graphics/SVG/1.1/DTD/svg11.dtd">
<svg version="1.1" id="Layer_1" xmlns="http://www.w3.org/2000/svg" xmlns:xlink="http://www.w3.org/1999/xlink" x="0px" y="0px"
	 width="1280px" height="800px" viewBox="0 0 1280 800" enable-background="new 0 0 1280 800" xml:space="preserve">
<circle fill="#88A0FF" cx="1001.503" cy="692.504" r="352.497"/>
<path fill="#1F3FC1" d="M823.541,744.411c0,0-0.055-0.102,0.117,3.289c0.021,0.417-0.172,2.957-0.162,3.361
	c0.037,1.443-0.404,4.305-0.25,5.191c0.607,3.487,19.705,2.217,25.648,1.725c5.683-0.471,8.034-6.428,4.585-7.524
	c-3.448-1.097-15.165-1.073-17.38-7.903C833.886,735.72,823.541,744.411,823.541,744.411z"/>
<path fill="#1F3FC1" d="M793.233,746.509c-0.417,6.388-3.028,9.675-2.849,11.577c0.08,0.848,2.527,6.12,4.896,6.148
	c2.604,0.031,3.549,0.011,6.352,0c3.489-0.013,6.248-5.645,5.693-7.659c-1.528-5.543-1.458-3.54-2.777-10.066
	C803.988,743.736,793.418,743.687,793.233,746.509z"/>
<path fill="#1F3FC1" d="M836.981,560.864c0,0,20.01,10.142,21.984,10.94c0.521,0.211,3.631,3.879,5.33,4.938
	c6.337,3.952,17.373,9.602,24.883,13.402c1.648,0.835,2.284,3.043,3.47,4.387c3.584,4.062,10.427,5.546,11.843,3.463
	c3.645-5.361-4.966-9.039-4.85-10.672c0.039-0.548,5.369-1.882,0.745-3.018c-2.863-0.703-6.985,0.208-8.151-0.861
	c-7.234-6.639-16.367-12.669-22.375-16.146c-2.292-1.325-5.498-2.773-5.957-3.018c-1.039-0.549-7.504-6.76-18.967-18.223
	C829.471,530.592,836.979,556.045,836.981,560.864z"/>
<path fill="#1F3FC1" d="M877.708,643.397c3,3.833,9,108,18,108s36,0,45,0s14.667-105.333,18-108c1.799-1.439,9.063-9.009,0-9
	c-2.357,0.002-81,0-81,0C868.542,634.397,876.565,641.938,877.708,643.397z"/>
<path fill="#DCE6FF" d="M877.014,635.131c-0.721-8.578,7.952-26.412,12.202-29.114c4.681-2.978,53.717-3.104,57.586,0.214
	c3.871,3.321,13.619,22.771,12.947,28.419C958.708,643.397,877.708,643.397,877.014,635.131z"/>
<path fill="#1F3FC1" d="M889.542,624.736c-1.895-5.186,5.989-18.439,8.916-20.335c3.226-2.089,36.59-2.528,39.256-0.2
	c2.666,2.329,10.509,17.086,8.619,20.535C942.958,630.897,891.792,630.898,889.542,624.736z"/>
<path fill="#DCE6FF" d="M979.644,521.364c-11.771,6.146-13.333,38.958-14.583,44.458c0,0-21.581,17.914-31.912,28.542
	c-0.632,0.65-1.323,1.078-2.042,1.542c-2.108,0.092-4.359,0.392-4.813,0.833c-1.244,1.212,0.34,1.171,0.563,1.542
	s-6.473,6.482-6.25,8.708c0.223,2.225,3.006,2.692,8.459,0.542c4.456-1.758,5.19-4.893,7.416-7.636
	c0.433-0.304,1.094-1.228,1.793-1.696c8.033-5.389,32.05-20.834,35.369-26.335C979.728,561.781,995.411,513.132,979.644,521.364z"/>
<path fill="#D3669F" d="M1034.104,728.05c0,0,0.845,10.377,0.068,10.627s-2.693,0.25-2.693,0.25L1034.104,728.05z"/>
<path fill="#1F3FC1" d="M1011.698,746.156c0,0,0.033,6.405-0.743,6.655s-4.931,0.151-4.931,0.151L1011.698,746.156z"/>
<path fill="#DCE6FF" d="M991.235,678.827c0,0,4.244,31.767,10.097,50.769c1.255,4.075-0.233,10.313-0.233,10.313
	c-5.619,8.813-3.416,12.314-3.119,15.436c0.5,5.25,8.489-1.486,10.583-4.166c4.917-6.292,1.167-10.584,1.167-18.209
	c0-3.011,2.25-37.402,0.75-50.889S991.235,678.827,991.235,678.827z"/>
<path fill="#DCE6FF" d="M1019.253,681.425c0.224,12.862,7.662,50.553,6.743,55.776c-0.206,1.17-0.509,3.085-0.807,4.463
	c-0.896,4.156-2.675,7.271-2.293,10.93c0.349,3.349,1.927,5.848,4.167,5.542c2.436-0.332,5.104-3.099,5.963-7.748
	c1.082-5.849,1.345-12.952,1.87-15.877c0.942-5.25,5.434-37.059,3.303-55.016C1035.645,657.968,1019.186,677.532,1019.253,681.425z"
	/>
<path fill="#1F3FC1" d="M984.353,471.5c1.5,10.755,8.012,16.895,18.859,16.694c1.788-0.033,3.089,8.327-0.452,12.869
	c-1.055,1.353,0.499,9.562,1.624,9.812c0.628,0.14,1.819,0.275,2.751,0.367c0.002-0.003,0.009-0.013,0.009-0.013l9.199,0.938
	c-0.007,0.011-0.013,0.027-0.02,0.039c4.176,0.37,10.907,3.682,14.686,16.023c3.82,12.479,6.846,37.079,7.888,47.141
	c3.563,1.265,8.802-3.172,8.802-3.172c25.916-2.334,22.916-29,22.916-29c7.167-11,0.128-23.164-10.833-30.167
	c-12.312-7.866-21.542-7.75-37.875-21.75s-16.073-23.447-26.438-27.057c-6.271-2.184-19.456-0.662-20.373,12.088
	c-0.124,1.72,0.685,3.032,0.917,3.584l8.199-8.418"/>
<path fill="#DCE6FF" d="M981.119,521.332c0,0,8.875-6.313,9.188-7.188s-1.375-8.75-1.375-8.75s-5.473,1.872-7.074-2.103
	c-0.479-1.188-3.473-7.26-4.111-7.081c-2.686,0.751-3.246,0.871-1.748-7.421c0.529-2.93-2.207-8.041,2.279-14.295
	c2.301-3.206,4.809-3.812,6.686-3.476c0,0,3.908,16.728,18.49,16.646c3.52-0.02,3.25,9.083-0.082,12.917
	c-1.125,1.294,0.498,9.562,1.623,9.812s4.063,0.487,4.063,0.487l-14.063,17.45h-15.125L981.119,521.332z"/>
<path fill="#3556DE" d="M981.127,520.725c0,0-3.9,8.724-4.733,10.557s-6.961,10.805-5.042,19.417c1.708,7.666,12.166,34,13,43.167
	s-13.583,61.416-6.833,77.166s83,16.25,101.25-23.5c0,0-22.033-10.708-25.75-28.75c-3.871-18.792-13.501-30.582-19.167-34.749
	s-20.249-68.396-17.499-72.396l-9.199-0.938c0,0-6.051,9.083-15.802,12.5c-4.462,1.563-5.854-0.036-5.708-2.219
	c0.115-1.726,0.568-2.978,1.075-3.76L981.127,520.725z"/>
<path fill="#3556DE" d="M1025.316,741.046c-1.261,3.751-3.324,7.288-4.559,11.917c-0.667,2.501-0.59,7.136,3.806,7.136
	c3.715,0,6.95-2.635,7.958-6.672c1.363-5.461,1.646-13.028,1.651-12.099c0.011,1.614-4.037,10.672-8.506,10.453
	c-1.938-0.095-2.125-3.094-1.729-5.021c0.213-1.035,0.718-2.818,1.124-4.417C1025.198,741.811,1025.19,741.421,1025.316,741.046z"/>
<path fill="#3556DE" d="M1001.099,739.908c0,0-3.665,5.442-2.168,8.064c0.33,0.578,2.495,1.56,4.625,0.063
	c4.178-2.938,7.199-6.604,6.91-8.644c-0.098-0.69,1.232,4.932,1.232,6.765c0,3.815-10.913,13.816-17.83,13.441
	c-2.488-0.135-3.625-5.5-0.875-9.025C995.082,747.895,997.238,745.929,1001.099,739.908z"/>
<path fill="#DCE6FF" d="M1038.356,613.239c-0.344-1.563-0.468-2.715-0.375-4c1.097-15.23,0.693-34.866,1.501-38.458
	c0.821-3.654-3.255-26.749-8.255-43.083s-15.177-16.854-17.75-15.667c-18.417,8.5,13.953,54.822,13.588,57.334
	c-0.588,4.052,2.869,40.241,3.256,44.256c0.033,0.467,0.059,1.19-0.027,1.91c-0.105,0.879-4.416,8.146-3.735,8.859
	c0.744,0.78,3.786-2.201,3.786-2.201s0.574,1.147,0.554,11.092c-0.002,1.105,5.958,0.29,7.333-3.584
	C1039.568,625.931,1042.065,619.99,1038.356,613.239z"/>
<path fill="#1F3FC1" d="M800.381,525.837l3.566-0.116c0,0-0.309-8.493-0.752-8.737c-1.512-0.834-5.156-5.437-5.754-15.539
	c-0.209-3.531,1.164-2.124,4.625-4.741c2.899-2.194,4.075-6.897,4.311-11.6c0.234-4.703,3.213,5.251,8.855,1.254
	s-4.103,9.75,5.879,5.956c11.703-4.449,7.813,9.082,7.953,10.384c0.844,7.778,4.188,9.08-1.125,8.955
	c-0.619-0.015-1.16,6.374-3.875,7.796c-1.75,0.917-5.025-0.573-6.05-0.521c-1.153,0.059-0.646,5.088-0.646,6.734
	c0,1.599,6.891,1.974,6.891,1.974l4.219,13.368l-20.46,0.94l-8.46-9.17L800.381,525.837z"/>
<path fill="#DCE6FF" d="M830.977,485.449c0,0,0,0,0.227,0.074s3.05,1.354,3.4-4.297c0.316-5.131-5.923-4.565-7.08-4.418
	c0.833-0.282,3.881-2.251,1.681-6.351c-2.49-4.641-7.665-1.752-7.665-1.752c-1.412-2.265-2.922-8.188-10.84-7.128
	c-7.485,1.005-8.271,8.499-8.336,9.314c-0.1-0.604-2.123-4.219-7.761-1.05c-6.04,3.396-2.501,8.823-2.501,8.823
	c-1.498-0.219-4.219-0.775-6.691,3.142c-2.473,3.916,1.285,7.475,1.285,7.475c-2.697-2.137-10.44-0.099-8.027,8.332
	c2.412,8.431,10.901,8.878,10.901,8.878c-1.198,0.616-4.692,5.019,0.438,8.936c5.13,3.918,11.444-0.27,11.444-0.27l-0.723-1.082
	c-2.285-4.626,3.233-0.7,5.441-8.725c0.788-2.865-4.436-7.585-0.634-9.676c3.187-1.753,3.96,0.182,4.871-4.438
	c0.912-4.619,1.795,3.668,12.277,1.634c4.516-0.876,5.441,0.842,5.081,3.175c1.399,0.336,3.313-0.131,5.098-2.565
	C835.697,489.612,830.977,485.449,830.977,485.449z"/>
<path fill="#3556DE" d="M812.039,650.216c0,1.567,6.643,25.876,6.643,27.13s1.02,4.766-0.156,11.428
	c-2.394,13.563,4.545,55.566,4.545,55.566s13.422,0.55,13.089-1.41c-1.169-6.88-2.038-49.599-2.521-55.02
	c-0.143-1.612-1.007-5.015-0.307-9.166c0.678-4.01,6.197-34.292,1.729-66.699c-0.728-5.271-23.747,2.508-23.747,2.508
	L812.039,650.216z"/>
<path fill="#3556DE" d="M807.082,677.252c-1.299,4.256-1.254,10.439-1.117,11.686c1.297,11.88,1.289,46.864,0.961,57.519
	c-0.025,0.791-11.757,0.705-13.951,0.705c-2.195,0,0.328-5.576-1.396-19.123c-1.896-14.891-3.619-28.526-0.484-40.754
	c3.18-12.405-0.041-21.445-0.705-24.728s-4.547-35.579-0.471-43.851s26.883-1.646,26.883-1.646S813.443,656.41,807.082,677.252z"/>
<path fill="#DCE6FF" d="M846.582,545.764c-1.12-1.046-12.794-14.793-17.104-16.87c-1.708-0.822-12.081-2.977-11.728-2.624
	c0.353,0.353,1.872,1.371,2.067,3.134c0.167,1.508-0.288,3.186-3.272,4.135c-8.443,2.684-12.598-7.817-12.598-7.817
	c-4.585-0.125-9.542-0.021-13.207,2.703c-8.699,6.466-8.276,29.971-6.666,30.033c0.245,0.009,7.061,1.764,7.061,1.764
	s-1.688,13.288-3.686,19.225c-0.092,0.272-0.707,5.094-0.822,7.289c-0.35,6.571-0.818,34.812-2.066,41.188
	c12.387-0.536,55.045-0.983,53.91-5.92c-3.997-17.399-3.569-61.907-2.945-61.265c0.928,0.955,1.509,1.019,1.998,1.168
	c0,0,0.549,0.236,0.921-1.43C840.564,550.992,847.758,546.861,846.582,545.764z"/>
<path fill="#1F3FC1" d="M784.694,558.594c0,0,0.528,16.535,1.074,20.264c0.101,0.688-1.317,5.243-1.816,7.211
	c-1.71,6.739-1.188,20.752-0.388,29.463c0.514,5.577-0.473,6.562-1.072,8.288c-2.011,5.795-3.594,18.724,4.031,18.712
	c0.781-0.001,2.708-10.479,2.708-10.479c0.169,0.978,1.843,2.896,3.125,1.938c0.725-0.542-1.719-7.705-1.757-8.504
	c-0.038-0.797-1.05-6.017-0.217-8.912c0.156-0.539,3.027-18.788,3.615-29.839c0.116-2.195,0.73-7.017,0.822-7.289
	c1.999-5.937,3.828-20.23,3.828-20.23L784.694,558.594z"/>
<g>
	<g>
		<path fill="none" stroke="#B7CAFF" stroke-width="2" stroke-linecap="round" stroke-linejoin="round" stroke-miterlimit="10" d="
			M946.912,547.078c-7.4-7.444-17.648-12.056-28.975-12.056s-21.574,4.611-28.974,12.056"/>
		<path fill="none" stroke="#B7CAFF" stroke-width="2" stroke-linecap="round" stroke-linejoin="round" stroke-miterlimit="10" d="
			M936.222,557.769c-4.679-4.679-11.144-7.572-18.283-7.572c-7.141,0-13.604,2.895-18.283,7.573"/>
		<path fill="none" stroke="#B7CAFF" stroke-width="2" stroke-linecap="round" stroke-linejoin="round" stroke-miterlimit="10" d="
			M926.448,567.542c-2.163-2.208-5.175-3.582-8.511-3.582s-6.348,1.374-8.511,3.582"/>
	</g>
</g>
<g>
	<g>
		<g>
			<path fill="#B7CAFF" d="M799.368,270.696c0,2.2-1.8,4-4,4h-32.154c-2.2,0-4-1.8-4-4v-3.473c0-2.2,1.8-4,4-4h32.154
				c2.2,0,4,1.8,4,4V270.696z"/>
		</g>
		<g>
			<path fill="#1F3FC1" d="M782,269c0,1.65-1.35,3-3,3h-13c-1.65,0-3-1.35-3-3l0,0c0-1.65,1.35-3,3-3h13
				C780.65,266,782,267.35,782,269L782,269z"/>
		</g>
		<circle fill="#1F3FC1" cx="793.792" cy="268.959" r="2.868"/>
	</g>
	<g>
		<g>
			<path fill="#B7CAFF" d="M799.368,257.696c0,2.2-1.8,4-4,4h-32.154c-2.2,0-4-1.8-4-4v-3.473c0-2.2,1.8-4,4-4h32.154
				c2.2,0,4,1.8,4,4V257.696z"/>
		</g>
		<g>
			<path fill="#1F3FC1" d="M782,256c0,1.65-1.35,3-3,3h-13c-1.65,0-3-1.35-3-3l0,0c0-1.65,1.35-3,3-3h13
				C780.65,253,782,254.35,782,256L782,256z"/>
		</g>
		<circle fill="#1F3FC1" cx="793.792" cy="255.959" r="2.868"/>
	</g>
	<g>
		<g>
			<path fill="#B7CAFF" d="M799.368,244.696c0,2.2-1.8,4-4,4h-32.154c-2.2,0-4-1.8-4-4v-3.473c0-2.2,1.8-4,4-4h32.154
				c2.2,0,4,1.8,4,4V244.696z"/>
		</g>
		<g>
			<path fill="#1F3FC1" d="M782,243c0,1.65-1.35,3-3,3h-13c-1.65,0-3-1.35-3-3l0,0c0-1.65,1.35-3,3-3h13
				C780.65,240,782,241.35,782,243L782,243z"/>
		</g>
		<circle fill="#1F3FC1" cx="793.792" cy="242.959" r="2.868"/>
	</g>
</g>
<g>
	<path fill="#FFE578" d="M666.834,234.11c-6.312-21.485-12.125-34.965-18.328-34.965c-10.27,0-8.481,17.411-24.314,16.325
		c-5.821-0.4-12.162-8.787-16.416-8.973c-7.887-0.344-11.337,8.148-11.337,8.148l0.001,19.465h67.331H666.834z"/>
	<g>
		
			<line fill="none" stroke="#3556DE" stroke-width="2" stroke-linecap="round" stroke-linejoin="round" stroke-miterlimit="10" x1="596.745" y1="199.145" x2="596.745" y2="239.688"/>
		
			<polyline fill="none" stroke="#3556DE" stroke-width="2" stroke-linecap="round" stroke-linejoin="round" stroke-miterlimit="10" points="
			669.604,234.11 668.189,234.11 596.746,234.11 591.423,234.11 		"/>
	</g>
</g>
<path fill="#3556DE" d="M891.271,593.899c0,0-9.891,9.173-9.292,10.656c0.6,1.483,4.796,6.278,7.193,6.578
	s9.193-10.343,10.142-11.54c0.18-0.227,0.965-0.979,0.965-0.979c-4.598,0.049,1.598-8.745,5.076-4.521c0,0,1.225-1.177,1.502-1.542
	c1.418-1.869,0.25-5.146,0.699-6.195s3.047-3.247,3.047-3.247l-2.646-2.697c0,0-2.275,2.984-3.798,2.997s-4.595-0.165-5.614,0.718
	C896.947,585.511,891.271,593.899,891.271,593.899z"/>
<path fill="#3556DE" d="M925.387,596.456c0,0-0.426-0.282-0.396-0.522c0.354-2.769-4.39,0.539-6.417,2.898
	c-5.406,6.295-4.875,7.375-3.143,7.138c1.676-0.229,14.81,9.112,14.81,9.112c0.5,0.125,5.63-4.655,5.625-5.547
	C935.857,607.991,925.387,596.456,925.387,596.456z"/>
<g>
	<circle opacity="0.4" fill="#FCE78E" cx="685" cy="400.001" r="38.583"/>
	<circle opacity="0.7" fill="#FCE78E" cx="685" cy="400.001" r="32.833"/>
	<circle fill="#FFE578" cx="685" cy="400.001" r="25.667"/>
	<g>
		<g>
			<path fill="#FE9900" d="M700.221,410.64c0.189,0.136,0.315,0.31,0.377,0.52c0.061,0.21,0.058,0.425-0.011,0.642
				s-0.193,0.391-0.377,0.52c-0.183,0.129-0.384,0.193-0.601,0.193h-9.489c0.027,0.162,0.051,0.332,0.071,0.509
				s0.03,0.353,0.03,0.529c0,0.72-0.136,1.396-0.407,2.026s-0.645,1.185-1.12,1.66c-0.476,0.475-1.028,0.848-1.659,1.119
				c-0.632,0.271-1.308,0.408-2.026,0.408c-0.72,0-1.396-0.137-2.026-0.408c-0.632-0.271-1.185-0.645-1.66-1.119
				c-0.475-0.476-0.849-1.029-1.119-1.66c-0.272-0.631-0.408-1.307-0.408-2.026c0-0.177,0.007-0.353,0.021-0.529
				s0.041-0.347,0.082-0.509h-9.49c-0.23,0-0.435-0.064-0.61-0.193c-0.177-0.129-0.306-0.303-0.387-0.52
				c-0.068-0.217-0.068-0.432,0-0.642c0.067-0.21,0.189-0.384,0.366-0.52c0.597-0.448,1.13-0.954,1.599-1.517
				c0.468-0.563,0.861-1.164,1.181-1.803c0.319-0.638,0.563-1.31,0.733-2.016s0.255-1.433,0.255-2.18v-6.251
				c0-1.316,0.206-2.565,0.621-3.747c0.414-1.181,0.994-2.257,1.741-3.228c0.746-0.97,1.629-1.805,2.646-2.505
				c1.019-0.699,2.125-1.218,3.319-1.558v-1.487c0-0.855,0.306-1.588,0.917-2.199c0.61-0.611,1.351-0.916,2.22-0.916
				c0.855,0,1.588,0.305,2.199,0.916c0.61,0.611,0.916,1.344,0.916,2.199v1.487c1.208,0.339,2.321,0.859,3.34,1.558
				c1.019,0.7,1.897,1.535,2.638,2.505c0.739,0.971,1.319,2.047,1.74,3.228s0.632,2.43,0.632,3.747v6.251
				c0,0.747,0.085,1.474,0.255,2.18c0.169,0.706,0.413,1.378,0.732,2.016c0.319,0.639,0.71,1.239,1.171,1.803
				C699.094,409.686,699.623,410.191,700.221,410.64z"/>
		</g>
	</g>
</g>
<g>
	<g>
		<g>
			<path fill="#FFE578" d="M1043.167,214.426c1.216,0,2.251,0.427,3.106,1.282c0.854,0.855,1.282,1.891,1.282,3.105v40.832
				c0,1.215-0.428,2.25-1.282,3.105c-0.855,0.855-1.891,1.283-3.106,1.283h-49.579c-1.216,0-2.251-0.428-3.105-1.283
				s-1.282-1.891-1.282-3.105v-40.832c0-1.215,0.428-2.25,1.282-3.105s1.89-1.282,3.105-1.282H1043.167z M1043.167,261.127
				c0.418,0,0.77-0.143,1.055-0.428s0.427-0.637,0.427-1.055v-30.63h-52.542v30.63c0,0.418,0.143,0.77,0.428,1.055
				s0.636,0.428,1.054,0.428H1043.167z M1002.336,243.603c0.398,0,0.74-0.142,1.025-0.427c0.285-0.284,0.428-0.627,0.428-1.026
				c0-0.398-0.143-0.74-0.428-1.025s-0.627-0.428-1.025-0.428h-2.935c-0.399,0-0.741,0.143-1.026,0.428s-0.428,0.627-0.428,1.025
				c0,0.399,0.143,0.742,0.428,1.026c0.285,0.285,0.627,0.427,1.026,0.427H1002.336z M1002.336,249.444
				c0.398,0,0.74-0.143,1.025-0.428s0.428-0.627,0.428-1.025s-0.143-0.74-0.428-1.025s-0.627-0.428-1.025-0.428h-2.935
				c-0.399,0-0.741,0.143-1.026,0.428s-0.428,0.627-0.428,1.025s0.143,0.74,0.428,1.025s0.627,0.428,1.026,0.428H1002.336z
				 M1002.336,255.286c0.398,0,0.74-0.143,1.025-0.428s0.428-0.627,0.428-1.025c0-0.418-0.143-0.77-0.428-1.055
				s-0.627-0.428-1.025-0.428h-2.935c-0.399,0-0.741,0.143-1.026,0.428s-0.428,0.637-0.428,1.055c0,0.398,0.143,0.74,0.428,1.025
				s0.627,0.428,1.026,0.428H1002.336z M1011.083,237.763c0.399,0,0.741-0.143,1.026-0.428c0.284-0.285,0.427-0.627,0.427-1.025
				c0-0.399-0.143-0.742-0.427-1.026c-0.285-0.285-0.627-0.428-1.026-0.428h-2.906c-0.418,0-0.77,0.143-1.054,0.428
				c-0.285,0.284-0.428,0.627-0.428,1.026c0,0.398,0.143,0.74,0.428,1.025c0.284,0.285,0.636,0.428,1.054,0.428H1011.083z
				 M1011.083,243.603c0.399,0,0.741-0.142,1.026-0.427c0.284-0.284,0.427-0.627,0.427-1.026c0-0.398-0.143-0.74-0.427-1.025
				c-0.285-0.285-0.627-0.428-1.026-0.428h-2.906c-0.418,0-0.77,0.143-1.054,0.428c-0.285,0.285-0.428,0.627-0.428,1.025
				c0,0.399,0.143,0.742,0.428,1.026c0.284,0.285,0.636,0.427,1.054,0.427H1011.083z M1011.083,249.444
				c0.399,0,0.741-0.143,1.026-0.428c0.284-0.285,0.427-0.627,0.427-1.025s-0.143-0.74-0.427-1.025
				c-0.285-0.285-0.627-0.428-1.026-0.428h-2.906c-0.418,0-0.77,0.143-1.054,0.428c-0.285,0.285-0.428,0.627-0.428,1.025
				s0.143,0.74,0.428,1.025c0.284,0.285,0.636,0.428,1.054,0.428H1011.083z M1011.083,255.286c0.399,0,0.741-0.143,1.026-0.428
				c0.284-0.285,0.427-0.627,0.427-1.025c0-0.418-0.143-0.77-0.427-1.055c-0.285-0.285-0.627-0.428-1.026-0.428h-2.906
				c-0.418,0-0.77,0.143-1.054,0.428c-0.285,0.285-0.428,0.637-0.428,1.055c0,0.398,0.143,0.74,0.428,1.025
				c0.284,0.285,0.636,0.428,1.054,0.428H1011.083z M1019.831,237.763c0.398,0,0.74-0.143,1.025-0.428s0.428-0.627,0.428-1.025
				c0-0.399-0.143-0.742-0.428-1.026c-0.285-0.285-0.627-0.428-1.025-0.428h-2.906c-0.399,0-0.741,0.143-1.026,0.428
				c-0.284,0.284-0.427,0.627-0.427,1.026c0,0.398,0.143,0.74,0.427,1.025c0.285,0.285,0.627,0.428,1.026,0.428H1019.831z
				 M1019.831,243.603c0.398,0,0.74-0.142,1.025-0.427c0.285-0.284,0.428-0.627,0.428-1.026c0-0.398-0.143-0.74-0.428-1.025
				s-0.627-0.428-1.025-0.428h-2.906c-0.399,0-0.741,0.143-1.026,0.428c-0.284,0.285-0.427,0.627-0.427,1.025
				c0,0.399,0.143,0.742,0.427,1.026c0.285,0.285,0.627,0.427,1.026,0.427H1019.831z M1019.831,249.444
				c0.398,0,0.74-0.143,1.025-0.428s0.428-0.627,0.428-1.025s-0.143-0.74-0.428-1.025s-0.627-0.428-1.025-0.428h-2.906
				c-0.399,0-0.741,0.143-1.026,0.428c-0.284,0.285-0.427,0.627-0.427,1.025s0.143,0.74,0.427,1.025
				c0.285,0.285,0.627,0.428,1.026,0.428H1019.831z M1019.831,255.286c0.398,0,0.74-0.143,1.025-0.428s0.428-0.627,0.428-1.025
				c0-0.418-0.143-0.77-0.428-1.055s-0.627-0.428-1.025-0.428h-2.906c-0.399,0-0.741,0.143-1.026,0.428
				c-0.284,0.285-0.427,0.637-0.427,1.055c0,0.398,0.143,0.74,0.427,1.025c0.285,0.285,0.627,0.428,1.026,0.428H1019.831z
				 M1028.578,237.763c0.418,0,0.77-0.143,1.055-0.428s0.428-0.627,0.428-1.025c0-0.399-0.143-0.742-0.428-1.026
				c-0.285-0.285-0.637-0.428-1.055-0.428h-2.906c-0.398,0-0.74,0.143-1.025,0.428c-0.285,0.284-0.428,0.627-0.428,1.026
				c0,0.398,0.143,0.74,0.428,1.025s0.627,0.428,1.025,0.428H1028.578z M1028.578,243.603c0.418,0,0.77-0.142,1.055-0.427
				c0.285-0.284,0.428-0.627,0.428-1.026c0-0.398-0.143-0.74-0.428-1.025s-0.637-0.428-1.055-0.428h-2.906
				c-0.398,0-0.74,0.143-1.025,0.428s-0.428,0.627-0.428,1.025c0,0.399,0.143,0.742,0.428,1.026
				c0.285,0.285,0.627,0.427,1.025,0.427H1028.578z M1028.578,249.444c0.418,0,0.77-0.143,1.055-0.428s0.428-0.627,0.428-1.025
				s-0.143-0.74-0.428-1.025s-0.637-0.428-1.055-0.428h-2.906c-0.398,0-0.74,0.143-1.025,0.428s-0.428,0.627-0.428,1.025
				s0.143,0.74,0.428,1.025s0.627,0.428,1.025,0.428H1028.578z M1028.578,255.286c0.418,0,0.77-0.143,1.055-0.428
				s0.428-0.627,0.428-1.025c0-0.418-0.143-0.77-0.428-1.055s-0.637-0.428-1.055-0.428h-2.906c-0.398,0-0.74,0.143-1.025,0.428
				s-0.428,0.637-0.428,1.055c0,0.398,0.143,0.74,0.428,1.025s0.627,0.428,1.025,0.428H1028.578z M1037.354,237.763
				c0.398,0,0.741-0.143,1.025-0.428c0.285-0.285,0.428-0.627,0.428-1.025c0-0.399-0.143-0.742-0.428-1.026
				c-0.284-0.285-0.627-0.428-1.025-0.428h-2.935c-0.399,0-0.741,0.143-1.026,0.428c-0.284,0.284-0.427,0.627-0.427,1.026
				c0,0.398,0.143,0.74,0.427,1.025c0.285,0.285,0.627,0.428,1.026,0.428H1037.354z M1037.354,243.603
				c0.398,0,0.741-0.142,1.025-0.427c0.285-0.284,0.428-0.627,0.428-1.026c0-0.398-0.143-0.74-0.428-1.025
				c-0.284-0.285-0.627-0.428-1.025-0.428h-2.935c-0.399,0-0.741,0.143-1.026,0.428c-0.284,0.285-0.427,0.627-0.427,1.025
				c0,0.399,0.143,0.742,0.427,1.026c0.285,0.285,0.627,0.427,1.026,0.427H1037.354z M1037.354,249.444
				c0.398,0,0.741-0.143,1.025-0.428c0.285-0.285,0.428-0.627,0.428-1.025s-0.143-0.74-0.428-1.025
				c-0.284-0.285-0.627-0.428-1.025-0.428h-2.935c-0.399,0-0.741,0.143-1.026,0.428c-0.284,0.285-0.427,0.627-0.427,1.025
				s0.143,0.74,0.427,1.025c0.285,0.285,0.627,0.428,1.026,0.428H1037.354z M1037.354,255.286c0.398,0,0.741-0.143,1.025-0.428
				c0.285-0.285,0.428-0.627,0.428-1.025c0-0.418-0.143-0.77-0.428-1.055c-0.284-0.285-0.627-0.428-1.025-0.428h-2.935
				c-0.399,0-0.741,0.143-1.026,0.428c-0.284,0.285-0.427,0.637-0.427,1.055c0,0.398,0.143,0.74,0.427,1.025
				c0.285,0.285,0.627,0.428,1.026,0.428H1037.354z"/>
			<path fill="#3556DE" d="M1003.731,220.763c0,0.399-0.143,0.741-0.428,1.026c-0.285,0.284-0.627,0.427-1.025,0.427
				c-0.399,0-0.741-0.143-1.026-0.427c-0.284-0.285-0.427-0.627-0.427-1.026v-4.359v-2.935v-1.453c0-0.399,0.143-0.741,0.427-1.026
				c0.285-0.284,0.627-0.427,1.026-0.427c0.398,0,0.74,0.143,1.025,0.427c0.285,0.285,0.428,0.627,0.428,1.026V220.763z"/>
			<path fill="#3556DE" d="M1035.814,220.763c0,0.399-0.143,0.741-0.428,1.026c-0.285,0.284-0.627,0.427-1.025,0.427
				c-0.399,0-0.741-0.143-1.026-0.427c-0.284-0.285-0.427-0.627-0.427-1.026v-4.359v-2.935v-1.453c0-0.399,0.143-0.741,0.427-1.026
				c0.285-0.284,0.627-0.427,1.026-0.427c0.398,0,0.74,0.143,1.025,0.427c0.285,0.285,0.428,0.627,0.428,1.026V220.763z"/>
		</g>
	</g>
	<circle fill="#3556DE" cx="1041.683" cy="258.952" r="16.407"/>
	
		<polyline fill="none" stroke="#FFE578" stroke-width="3" stroke-linecap="round" stroke-linejoin="round" stroke-miterlimit="10" points="
		1034.361,253.793 1041.876,258.95 1052.34,252.737 	"/>
</g>
<path fill="#3556DE" d="M869.68,271.166c2.645-7.531-1.201-35.413-33.169-33.49c-24.971,1.502-26.438,26.68-26.438,26.68
	c-6.565-6.817-15.432-6.971-20.188,0.563c-4.752,7.529,0.396,12.645,0.396,12.645c-6.887-1.068-13.884,11.479-2.681,17.318
	c8.532,4.445,65.119,3.43,80.88-1.201c2.655-0.781,8.571-4.248,9.214-10.016C878.895,272.879,869.68,271.166,869.68,271.166z"/>
<circle fill="#B7CAFF" cx="859.563" cy="282.447" r="4.75"/>
<circle fill="#B7CAFF" cx="730.816" cy="353.191" r="4.75"/>
<circle fill="#4168E5" cx="730.816" cy="353.191" r="1.438"/>
<circle fill="#3556DE" cx="859.563" cy="282.453" r="1.438"/>
<g>
	<circle fill="#B7CAFF" cx="831.211" cy="253.091" r="4.75"/>
	<circle fill="#3556DE" cx="831.211" cy="253.097" r="1.438"/>
</g>
<circle fill="#B7CAFF" cx="853.375" cy="259.471" r="4.75"/>
<circle fill="#3556DE" cx="853.375" cy="259.477" r="1.438"/>
<g>
	<circle fill="#B7CAFF" cx="918.068" cy="515.448" r="4.75"/>
	<circle fill="#88A0FF" cx="918.068" cy="515.454" r="1.438"/>
</g>
<circle fill="#B7CAFF" cx="799.937" cy="283.89" r="4.75"/>
<circle fill="#3556DE" cx="799.937" cy="283.896" r="1.438"/>
<g>
	<defs>
		<rect id="SVGID_1_" x="898.281" y="675.108" width="39.313" height="39.266"/>
	</defs>
	<clipPath id="SVGID_2_">
		<use xlink:href="#SVGID_1_"  overflow="visible"/>
	</clipPath>
	<g clip-path="url(#SVGID_2_)">
		<defs>
			<rect id="SVGID_3_" x="738.616" y="582.646" width="358.648" height="224.155"/>
		</defs>
		<clipPath id="SVGID_4_">
			<use xlink:href="#SVGID_3_"  overflow="visible"/>
		</clipPath>
		<path clip-path="url(#SVGID_4_)" fill="#88A0FF" d="M908.798,689.214c-2.264-2.211,1.213-5.668,3.469-3.468
			C914.468,688.001,911.011,691.479,908.798,689.214C907.839,688.277,909.736,690.175,908.798,689.214"/>
		<path clip-path="url(#SVGID_4_)" fill="#88A0FF" d="M923.472,703.888c-2.264-2.211,1.213-5.67,3.467-3.47
			C929.142,702.673,925.683,706.152,923.472,703.888C922.513,702.95,924.409,704.849,923.472,703.888"/>
		<path clip-path="url(#SVGID_4_)" fill="#88A0FF" d="M936.786,675.964c-0.962-0.938-2.004-0.854-3.215-0.854h-4.926h-14.844H902.06
			c-1.205,0-2.285-0.057-3.146,1.001c-0.874,1.075-0.587,2.882-0.587,4.177v14.176c0,1.109-0.095,2.266,0.013,3.373
			c0.232,2.422,2.658,2.211,4.406,2.211h13.461c0.41,0,0.832,0.025,1.24-0.021c0.791-0.092,1.511-0.575,1.879-1.281
			c0.508-0.816,1.135-1.542,1.922-2.1c3.049-2.155,7.586-1.396,9.636,1.766c2.053,3.164,1.15,7.578-2.079,9.575
			c-1.539,0.953-3.44,1.256-5.201,0.833c-1.912-0.457-3.277-1.685-4.332-3.289c-1.053-1.604-2.909-1.279-4.572-1.279h-7.234h-6.032
			c-0.634,0-1.241-0.012-1.827,0.299c-1.197,0.638-1.278,1.826-1.278,3.004v3.543c0,1.258,0.128,2.564,1.505,3.1
			c0.735,0.286,1.847,0.142,2.668,0.142h27.012h4.498h0.91c1.318,0,2.57-1.022,2.57-2.407c0.115-0.855,0.064-2.15,0.064-3.143
			v-7.221v-6.963c0-1.319,0.301-3.207-0.703-4.235c-1.068-1.044-3.408-0.688-4.787-0.688h-7.385h-5.708
			c-0.864,0-1.698,0.15-2.291,0.862c-0.523,0.626-0.864,1.337-1.476,1.911c-0.705,0.657-1.547,1.162-2.459,1.473
			c-3.577,1.219-7.605-0.801-8.723-4.428c-1.113-3.615,1.027-7.596,4.699-8.575c1.742-0.466,3.645-0.231,5.219,0.649
			c0.818,0.459,1.529,1.076,2.076,1.84c0.556,0.774,0.972,1.529,1.998,1.735c1.253,0.251,2.703,0.05,3.967,0.05h12.857
			c0.832,0,1.627-0.232,2.176-0.908c0.609-0.75,0.539-1.646,0.539-2.542v-3.165C937.554,677.603,937.538,676.735,936.786,675.964
			C936.306,675.496,937.255,676.444,936.786,675.964"/>
	</g>
</g>
<polyline fill="none" stroke="#B7CAFF" stroke-width="2" stroke-linecap="round" stroke-linejoin="round" stroke-miterlimit="10" stroke-dasharray="10,10,10,10,10,10" points="
	918.068,510.238 918.068,341.47 869.81,292.856 "/>
<path fill="none" stroke="#B7CAFF" stroke-width="2" stroke-linecap="round" stroke-linejoin="round" stroke-miterlimit="10" stroke-dasharray="12,12,12,12,12,12" d="
	M918.409,449.409"/>
<line fill="none" stroke="#B7CAFF" stroke-width="2" stroke-linecap="round" stroke-linejoin="round" stroke-miterlimit="10" x1="862.913" y1="285.803" x2="870.024" y2="293.073"/>
<line fill="none" stroke="#B7CAFF" stroke-width="2" stroke-linecap="round" stroke-linejoin="round" stroke-miterlimit="10" stroke-dasharray="10,10,10,10,10,10" x1="796.291" y1="287.734" x2="729.2" y2="354.825"/>
<polyline fill="none" stroke="#B7CAFF" stroke-width="2" stroke-linecap="round" stroke-linejoin="round" stroke-miterlimit="10" stroke-dasharray="10,10,10,10,10,10" points="
	828.633,250.262 790.205,212 685,212 "/>
<circle fill="#B7CAFF" cx="689.75" cy="212" r="4.75"/>
<circle fill="#4168E5" cx="689.75" cy="212" r="1.438"/>
<polyline fill="none" stroke="#B7CAFF" stroke-width="2" stroke-linecap="round" stroke-linejoin="round" stroke-miterlimit="10" stroke-dasharray="10,10,10,10,10,10" points="
	856.479,256.753 875.232,238 961,238 "/>
<circle fill="#B7CAFF" cx="962.15" cy="238" r="4.75"/>
<circle fill="#4168E5" cx="962.15" cy="238" r="1.438"/>
</svg>
